<?xml version="1.0" encoding="UTF-8"?><svg id="Calque_2" xmlns="http://www.w3.org/2000/svg" width="300" height="71.41345" viewBox="0 0 300 71.41345"><g id="Calque_1-2"><path d="M32.58377,66.12313c-17.15401-3.43932-13.21648-24.07525-13.21648-24.07525-8.01397,21.6305,13.21648,24.07525,13.21648,24.07525M21.69721,21.58234c2.55217-1.17607,1.45203-4.03384,1.45203-4.03384-1.84468,1.78726-1.47982,4.04681-1.45203,4.03384M26.02924,30.49642c2.27251,1.0668,4.95247-.82048,4.95247-.82048-4.00236-.86492-4.95247.82048-4.95247.82048M30.16865,30.90574c-2.59662.65749-3.20781,2.58366-3.20781,2.58366,2.92444-.16299,3.20781-2.58366,3.20781-2.58366M18.86537,24.45307c2.67997-1.05754,1.84653-3.90419,1.84653-3.90419-2.02433,1.78726-1.84653,3.90419-1.84653,3.90419M18.60053,21.62309c1.98729-1.84653,1.44092-3.63379,1.44092-3.63379-.88715,1.22978-1.44092,3.63379-1.44092,3.63379M24.64017,22.33614c-3.35968-.58896-3.90234,1.83727-3.90234,1.83727,2.60218.51117,3.90234-1.83727,3.90234-1.83727M16.77437,19.61173c2.15768,0,2.76702-2.96334,2.76702-2.96334-2.82258.79639-2.76701,2.96334-2.76701,2.96334M30.29089,21.19155c3.22263-1.67799,2.39475-4.80061,2.39475-4.80061-2.80035,1.80578-2.39475,4.80061-2.39475,4.80061M22.58436,15.25006c.92419.69824,2.7133-1.56501,2.7133-1.56501-2.10397.22225-2.7133,1.56501-2.7133,1.56501M24.21234,18.96349c2.95593-1.51871,1.85764-5.04323,1.85764-5.04323-2.57995,2.51698-1.85764,5.04323-1.85764,5.04323M23.58078,21.19896c2.64107.58896,4.01902-1.53352,4.01902-1.53352-3.57823-.71305-4.01902,1.53352-4.01902,1.53352M21.36754,14.29994c-.70564,2.3077-.38709,4.08014-.38709,4.08014,1.82616-3.24115.38709-4.08014.38709-4.08014M10.92178,24.96425c.91863-3.8616-1.00568-4.67652-1.00568-4.67652-.69083,1.33535-.11483,2.99112,1.00568,4.67652M12.27381,16.36687s1.465-2.091-1.23719-4.00977c0,0-.37412,2.61329,1.23719,4.00977M10.08649,9.27894s.11668,2.03359,2.5318,3.2819c0,0,.89085-2.44105-2.5318-3.2819M29.17408,33.22455c1.09829,1.06495,3.97827.36857,3.97827.36857-2.15027-1.64095-3.97827-.36857-3.97827-.36857M22.85291,40.47546c7.33055,1.57797,5.08768-4.28387,3.85789-4.60613,0,0,.29448,4.62836-6.31931,2.07618-4.64503-1.79281-11.33476-8.21399-11.33476-8.21399.34634.38894,5.36364,8.9289,13.79618,10.74394M15.05934,24.30676c2.2688-1.17237,3.04112-3.97087,3.04112-3.97087-3.31708,1.2872-3.04112,3.97087-3.04112,3.97087M16.60768,13.46095s-.71861,2.1799-.16483,4.02458c0,0,1.58909-1.05569.27596-4.35981l-.11113.33523ZM13.68139,14.65184c2.79109-.95938,2.50402-4.24128,2.50402-4.24128-3.19299,1.88728-2.50402,4.24128-2.50402,4.24128M11.20886,20.48961c1.43722-3.10595-.22966-4.21164-.22966-4.21164-1.15385,2.64478.22966,4.21164.22966,4.21164M11.64039,22.93066c2.09841-1.65762,2.18546-3.28004,2.18546-3.28004-2.93185,1.13162-2.18546,3.28004-2.18546,3.28004M12.79054,18.95238c2.41512-.40746,2.58736-3.77825,2.58736-3.77825-3.07631,1.54094-2.58736,3.77825-2.58736,3.77825M20.34519,35.82858c2.27251-1.84653,2.60033-5.08582,2.60033-5.08582-3.57267,2.33733-2.72627,5.18769-2.60033,5.08582M34.18582,29.67595c-2.94296.43154-3.57082,2.25769-3.57082,2.25769,3.00408.28707,3.57082-2.25769,3.57082-2.25769M23.22889,29.38888c-3.81715.0426-4.30239,2.667-4.30239,2.667,1.94839-.20558,4.30239-2.667,4.30239-2.667M28.87034,23.19921c2.63922,1.31128,5.03211-.73898,5.03211-.73898-3.8153-.86122-5.03211.73898-5.03211.73898M38.57341,28.0776s-1.78911-2.7485-4.63021-1.27053c0,0,.97605,1.0242,4.63021,1.27053M13.39802,28.33134c2.0484-3.74307.60934-6.93236.60934-6.93236-2.37993,3.243-.60934,6.93236-.60934,6.93236M13.72954,29.16292c2.15212,1.77986,5.05434-1.10569,5.05434-1.10569-3.83567-.06112-5.05434,1.10569-5.05434,1.10569M17.50409,33.57274c1.74652-2.1725,1.13718-4.10237,1.13718-4.10237-2.51698,2.54291-1.13718,4.10237-1.13718,4.10237M31.50956,26.60149c4.41167-1.05199,4.09866-3.89493,4.09866-3.89493-3.53192,1.31127-4.09866,3.89493-4.09866,3.89493M41.12928,31.64657s5.1525.28893,7.22313.85937l-.03889-.82047s-4.2635-.07779-7.18424-.03889M17.88007,13.29241s1.66132-2.29288-.88345-4.69504v.09075s-.94271,2.87259.88344,4.60429M28.40731,11.11251c-1.87061,1.47981-1.34091,4.91358-1.34091,4.91358,2.90962-2.28362,1.34091-4.91358,1.34091-4.91358M30.98727,16.72803c-4.23757-.75195-4.5765,1.72614-4.5765,1.72614,2.47624.8038,4.5765-1.72614,4.5765-1.72614M19.93958,29.34814c2.96334-1.51686,2.51698-3.68935,2.51698-3.68935-2.02988,1.47611-2.51698,3.68935-2.51698,3.68935M28.26285,34.43396c-1.30202-.65564-2.15027,0-2.15027,0,1.05198.90011,2.15027,0,2.15027,0M22.41582,28.24244c1.82245.59822,4.01717-1.10755,4.01717-1.10755-2.67626-.77788-4.01717,1.10755-4.01717,1.10755M26.15148,32.91525c-3.20596,1.27238-2.88184,4.26535-2.88184,4.26535,3.28745-1.55575,2.88184-4.26535,2.88184-4.26535M23.35112,26.14958c2.87999-.90011,2.63737-3.85048,2.63737-3.85048-2.7596,1.88542-2.63737,3.85048-2.63737,3.85048M26.63672,31.60397c-3.12447-.36856-3.57267,1.47611-3.57267,1.47611,2.23361-.04074,3.57267-1.47611,3.57267-1.47611M21.49348,25.50135c-2.72997-.50932-3.43562,1.25201-3.47451,1.32795l-.02593.06482c2.03359.99457,3.50044-1.39277,3.50044-1.39277M15.61126,17.20586l-.05556.27967s-.82788,1.11866-.71861,3.74677c0,0,1.93728-1.84468.77417-4.02643M17.93007,23.99746c-2.19102,1.66132-2.06878,3.50599-2.06878,3.50599,2.42994-.79269,2.06878-3.50599,2.06878-3.50599M23.83822,30.86684c3.08372-1.10755,2.87999-3.03557,2.87999-3.03557-2.354,1.15014-2.87999,3.03557-2.87999,3.03557M25.49954,25.90511c2.67997.73898,4.83024-1.35202,4.83024-1.35202-3.60786-.65564-4.83024,1.35202-4.83024,1.35202M29.72229,18.89312c-2.92074,1.84467-2.80035,4.63391-2.80035,4.63391,3.00408-1.14829,2.80035-4.63391,2.80035-4.63391M30.81873,25.24947c-2.84295,1.18904-3.20781,3.28004-3.20781,3.28004,3.45043-1.0668,3.20781-3.28004,3.20781-3.28004M18.10046,15.86496c2.82443-1.0631,2.82443-3.29856,2.82443-3.29856-3.10039,1.0631-2.82443,3.29856-2.82443,3.29856M18.4894,9.26969c.27781-4.3061-.27596-9.22709-.27596-9.22709l-.55563.27967c.94271,4.69689.83159,8.94742.83159,8.94742M19.32099,10.55503c1.05013-6.43044.82973-10.45502.82973-10.45502l-.9353-.10001c.32967,5.08767.10557,10.55503.10557,10.55503M15.5557,1.94839l-.39635-.21299s.91493,3.04112,1.09643,7.43982c0,0-.03149-2.33547-.70009-7.22683M14.18701,1.21126l-.48895-.03148s1.27979,3.6912,1.70577,8.64183c0,0-.12039-4.3061-1.21682-8.61035M16.82808.71305l-.82973.50562s1.22052,2.90592,1.49463,6.81937c0,0-.10927-4.58576-.6649-7.325M21.8639.65934l-.77417-.2241c.16669,4.91913-.82973,10.00681-.82973,10.00681.81121-2.78554,1.60391-9.78271,1.60391-9.78271M24.77167,1.63169s-.24448,2.70589-.85196,6.10818c0,0,.97049-2.74664,1.45944-6.23042l-.60748.12224h0ZM28.91108,2.08174l-.9353-.32782s-1.50204,5.29141-3.40783,9.30858c0,0,2.96148-5.20806,4.34314-8.98076M22.24172,14.03325c2.07804-2.69664.42228-4.395.42228-4.395-1.02791,2.24288-.42228,4.395-.42228,4.395M23.27704,1.55019l-.5371-.10742c-.77417,4.97655-1.81504,10.45132-1.81504,10.45132,1.49463-3.46525,2.35215-10.3439,2.35215-10.3439M26.3552,1.50945s-.28522,3.81159-2.47809,9.01966c0,0,2.19287-4.59132,3.20781-9.0604,0,0-.72972.04074-.72972.04074ZM48.23203,35.70449l.16299-.69638s-3.53193-.90382-6.49526-1.22979c0,0,3.53007.73713,6.33227,1.92617M36.64353,32.13737s1.30016,1.98914,5.19695,2.8911c0,0-.83529-2.97259-5.19695-2.8911M32.80787,32.30221c1.05569,1.70021,4.79134,1.74281,4.79134,1.74281-2.31511-2.68738-4.79134-1.74281-4.79134-1.74281M47.98756,37.26394l.07964-.57414s-2.90407-1.14088-5.19324-1.55946c0,0,2.39475.82233,5.11361,2.1336M41.08669,32.75412s5.11546.90011,7.34907,1.39277v-.69638s-3.63009-.50747-7.34907-.69639M30.49461,3.27078l-.81306-.57229s-3.05409,6.41747-5.03397,10.29018c0,0,3.2893-5.41179,5.84703-9.71789M7.84362,2.42067l-.4871.46487,3.30597,4.50242s-2.81887-4.96729-2.81887-4.96729ZM10.99031,1.11866l-.79269.15557s1.67614,2.70404,3.28745,8.63998c0,0-.85011-5.50254-2.49476-8.79555M9.25491,1.51871l-.76121.3982s2.49661,3.50785,4.01902,7.53428c0,0-1.82616-5.25622-3.25782-7.93248M10.26059,8.34735l-3.45228-4.93766-.51673.46487s1.86875,1.80023,3.96902,4.47279M21.52682,69.28278C-7.5435,59.40191,4.95251,32.59113,4.95251,32.59113c9.06595,9.60491,15.91126,8.88445,15.91126,8.88445-4.66911-1.83541-7.99175-4.21905-10.34575-6.56379-7.59169-8.3529-1.94098-13.51281-1.94098-13.51281-3.85789.12224-3.54119,4.58021-3.54119,4.58021C.88348,33.86722-.3463,40.22357.07968,47.57635c.42228,7.35278,4.77282,18.34675,18.17636,22.44912,13.40354,4.10608,18.86348-2.20583,18.86348-2.20583-5.48773,2.26695-11.30327,2.91888-15.5927,1.46315M12.75535.99642h-.61119s1.465,2.76702,2.31511,9.56417c0,0-.576-5.84332-1.70392-9.56417M34.8785,5.7322l-.52784-.0815-5.03397,6.10632,5.56181-6.02483ZM31.42807,4.29684l-.44635-.49265-5.1951,8.89556s5.64145-8.40291,5.64145-8.40291ZM46.61331,23.15661l-.4019-.74639c-3.22263.56859-10.2161,2.82443-10.2161,2.82443l10.618-2.07804ZM47.24672,26.62001v-.81492c-3.48007.07038-8.95298,1.08903-8.88075,1.08162,5.18954-.56674,8.88075-.2667,8.88075-.2667M47.03743,24.93276l-.1778-.889c-2.74109.35745-9.61788,2.02618-9.61788,2.02618,5.7322-1.18904,9.79568-1.13718,9.79568-1.13718M44.39822,19.76545l-.59637-.51673c-2.32066.85196-7.05274,3.19855-7.05274,3.19855,3.39487-1.38165,7.64911-2.68182,7.64911-2.68182M43.27956,18.52455v-.32782l-8.28067,3.64861s8.28067-3.32079,8.28067-3.32079ZM45.69838,21.48788l-.70194-.9779c-3.32264.85196-8.93261,3.62453-8.93261,3.62453,5.55811-1.82986,9.63454-2.64663,9.63454-2.64663M39.33276,27.75904c4.85432-.26855,7.98434.17595,7.98434.17595v-.40746c-5.48402-.30189-7.98434.23151-7.98434.23151M39.05865,28.81659c-4.10237.2241-4.60613,2.50031-4.60613,2.50031,3.30597.20558,4.60613-2.50031,4.60613-2.50031M43.62589,28.59063c-4.08199-.40931-5.37845,2.52254-5.37845,2.52254,4.16163.38894,5.37845-2.52254,5.37845-2.52254M47.70233,29.38888l-.16113-.77788-3.53008.37042c1.82801-.0426,3.69121.40746,3.69121.40746M48.15054,30.78535v-.57414c-1.58354.08149-5.48032.12223-5.48032.12223,2.02989.04075,5.48032.45191,5.48032.45191M43.19806,17.21327l-.20373-.77973-9.33451,4.92099,9.53824-4.14126ZM42.83321,15.326l-.28337-.86122-9.57898,5.94519c.12224-.03889,9.86235-5.08397,9.86235-5.08397M36.09717,6.59157l-.57229-.4093-5.92667,6.92864,6.49896-6.51934ZM37.31399,7.53428l-.32597-.24262-7.26573,7.62503s7.59169-7.38241,7.59169-7.38241ZM33.57648,5.48402l-.68713.08335-3.93938,4.79875,4.62651-4.8821ZM32.28003,5.36364l-.36671-.53525-2.27251,3.44488s2.63922-2.90962,2.63922-2.90962ZM29.80193,28.32578c2.47809,1.5539,5.92852.16113,5.92852.16113-3.69306-1.72059-5.92852-.16113-5.92852-.16113M41.12928,12.24969l-.48895-.40932-6.93977,5.28956c3.61342-2.41883,7.42872-4.88024,7.42872-4.88024M42.02199,13.47947l-.32411-.4908-8.15843,5.61737,8.48255-5.12657ZM39.86987,11.30883l-.52784-.20558-5.6822,4.46908s6.21004-4.2635,6.21004-4.2635ZM38.16595,9.05299l-.32412-.69638s-7.30647,7.0694-7.59169,7.29906c0,0,7.91581-6.60268,7.91581-6.60268ZM38.61045,10.61244l-.16113-.73713-6.53601,5.90259,6.69714-5.16546Z" fill="#b31d27"/><path d="M246.52659,25.65915h9.89939v23.04364h3.8894v-23.04364h9.90309v-3.40784h-23.69188v3.40784h0ZM115.21935,21.58456c-10.52539,0-14.55554,7.11386-14.55554,13.89249,0,6.78048,4.03014,13.89063,14.55554,13.89063,10.52725,0,14.56109-7.11015,14.56109-13.89063,0-6.77863-4.03385-13.89248-14.56109-13.89248M115.21935,45.9617c-5.97667,0-10.67171-3.48377-10.67171-10.48465,0-7.00273,4.69504-10.4865,10.67171-10.4865,5.98039,0,10.67356,3.48377,10.67356,10.4865,0,7.00088-4.69318,10.48465-10.67356,10.48465M199.62441,32.84709h-17.82448v-10.59578h-7.29535v.9316c1.86135,0,3.40227.8001,3.40227,2.93185v.0037h.00556v22.58432h3.88752v-12.44786h17.82448v12.44786h3.88566v-26.45148h-3.88566v10.59578ZM86.83616,34.55286v-.07779c2.12618-.77417,3.81159-2.36882,3.81159-5.59145,0-4.15052-2.49105-6.63232-8.06768-6.63232h-17.95596v.9316c1.82986,0,3.34671.77602,3.39672,2.82257v22.6973h15.47787c5.68405,0,8.28623-3.85048,8.28623-7.63244,0-3.81529-1.94283-5.81925-4.94877-6.51748M71.90834,25.65915h10.37909c3.19114,0,4.47649,1.40759,4.47649,3.8153,0,2.11323-1.39461,3.70787-4.25795,3.70787h-10.59763v-7.52317h0ZM82.43376,45.29495h-10.52541v-8.7048h10.85507c3.96161,0,5.13584,2.14657,5.13584,4.2209,0,2.25954-1.13532,4.4839-5.46549,4.4839M161.064,43.29285h-.07222l-16.83361-21.04154h-7.91025v.9316h.04629c1.80579.00741,3.29301.78713,3.35414,2.81332v22.70656h3.88753v-21.04338h.06853l16.83544,21.04338h4.51167v-26.45148h-3.88753v21.04153h.00002ZM282.46814,45.29495v-8.56033h16.65026v-3.40599h-16.65026v-7.66948h17.16697v-3.40784h-23.91042v.9316c1.85951,0,2.85223.8001,2.85223,2.93185h.00554v22.58802h21.41753v-3.40783h-17.53186Z" fill="#b31d27"/><path d="M227.24119,21.58438c-10.5254,0-14.55923,7.11386-14.55923,13.89249,0,6.78048,4.03385,13.89063,14.55923,13.89063,10.52725,0,14.56111-7.11015,14.56111-13.89063,0-6.77863-4.03387-13.89249-14.56111-13.89249M227.24119,45.96152c-5.97852,0-10.67357-3.48377-10.67357-10.48465,0-7.00273,4.69505-10.48465,10.67357-10.48465s10.67355,3.48192,10.67355,10.48465c0,7.00088-4.69503,10.48465-10.67355,10.48465" fill="#b31d27"/><rect x="214.56145" y="15.08597" width="25.35689" height="2.28918" fill="#b31d27"/></g></svg>