<svg width="257" height="61" viewBox="0 0 257 61" fill="none" xmlns="http://www.w3.org/2000/svg">
<g clip-path="url(#clip0_1_312)">
<path d="M246.87 39.71C246.83 39.8 246.81 39.89 246.81 39.97C246.81 40.16 246.93 40.36 247.17 40.56C247.41 40.76 247.72 40.95 248.11 41.12C248.5 41.29 248.94 41.43 249.43 41.54C249.92 41.65 250.42 41.7 250.92 41.7C252.21 41.7 253.15 41.51 253.73 41.13C254.31 40.75 254.6 40.26 254.6 39.66C254.6 39.37 254.53 39.14 254.39 38.95C254.25 38.76 254.05 38.61 253.8 38.51C253.55 38.41 253.26 38.34 252.92 38.3C252.59 38.26 252.23 38.24 251.85 38.24C251.23 38.24 250.56 38.24 249.86 38.24C249.16 38.24 248.52 38.15 247.93 37.98C247.34 37.81 246.86 37.53 246.48 37.13C246.1 36.73 245.91 36.15 245.91 35.37C245.91 34.88 246.05 34.44 246.32 34.03C246.59 33.63 246.96 33.28 247.43 33C247.9 32.71 248.45 32.49 249.09 32.33C249.73 32.17 250.42 32.09 251.17 32.09C251.75 32.09 252.26 32.13 252.69 32.21C253.12 32.29 253.49 32.38 253.8 32.48C254.11 32.57 254.37 32.66 254.58 32.74C254.79 32.82 254.95 32.86 255.09 32.86C255.24 32.86 255.35 32.83 255.42 32.78C255.49 32.73 255.56 32.66 255.62 32.6L255.86 32.7L254.74 35.05L254.51 34.91C254.51 34.91 254.53 34.78 254.53 34.64C254.53 34.54 254.45 34.43 254.29 34.29C254.13 34.15 253.89 34.02 253.59 33.89C253.29 33.76 252.93 33.65 252.52 33.56C252.11 33.47 251.65 33.43 251.16 33.43C250.06 33.43 249.18 33.61 248.54 33.96C247.89 34.31 247.57 34.78 247.57 35.35C247.57 35.61 247.64 35.82 247.78 35.97C247.92 36.13 248.12 36.25 248.37 36.34C248.62 36.43 248.91 36.49 249.25 36.51C249.58 36.54 249.94 36.55 250.32 36.55C250.96 36.55 251.63 36.55 252.32 36.58C253.01 36.6 253.65 36.71 254.24 36.9C254.82 37.09 255.31 37.4 255.69 37.82C256.07 38.24 256.26 38.86 256.26 39.68C256.26 40.12 256.15 40.53 255.92 40.93C255.7 41.33 255.36 41.69 254.91 42C254.46 42.31 253.91 42.56 253.25 42.73C252.59 42.91 251.82 43 250.95 43C250.22 43 249.58 42.94 249.04 42.83C248.5 42.71 248.04 42.58 247.66 42.42C247.28 42.26 246.97 42.12 246.72 41.99C246.47 41.86 246.28 41.8 246.13 41.8C246 41.8 245.85 41.88 245.7 42.05L245.5 41.93L246.6 39.58L246.87 39.72V39.71ZM233.66 32.57C233.59 32.48 233.46 32.44 233.27 32.44V32.19H241.82C242.17 32.19 242.4 32.16 242.49 32.1C242.59 32.04 242.63 31.93 242.63 31.78H242.87V34.11H242.63C242.63 33.93 242.57 33.79 242.47 33.69C242.36 33.59 242.15 33.54 241.84 33.54H235.47V36.77H239.61C239.85 36.77 240.06 36.73 240.21 36.65C240.37 36.57 240.44 36.42 240.44 36.2H240.69V38.67H240.44C240.44 38.47 240.38 38.32 240.26 38.24C240.14 38.16 239.93 38.12 239.65 38.12H235.46V41.59H242.28C242.57 41.59 242.78 41.54 242.91 41.44C243.05 41.34 243.11 41.16 243.11 40.9H243.36V43.33H243.11C243.11 43.07 242.87 42.94 242.4 42.94H233.26V42.69C233.45 42.69 233.58 42.65 233.65 42.56C233.72 42.47 233.75 42.35 233.75 42.2V32.93C233.75 32.78 233.72 32.66 233.65 32.57M221.78 42.55C221.85 42.64 221.98 42.68 222.17 42.68V42.93H219.48V42.68C219.67 42.68 219.8 42.64 219.87 42.55C219.94 42.46 219.97 42.34 219.97 42.19V32.92C219.97 32.77 219.93 32.65 219.87 32.56C219.8 32.47 219.67 32.43 219.48 32.43V32.18H226.32C227.67 32.18 228.63 32.44 229.22 32.95C229.8 33.46 230.1 34.2 230.1 35.16C230.1 36.02 229.88 36.7 229.43 37.2C228.98 37.7 228.25 38.02 227.23 38.16L229.8 42.14C229.95 42.36 230.07 42.5 230.16 42.57C230.25 42.64 230.39 42.67 230.6 42.67V42.92H227.66V42.67C227.84 42.67 227.95 42.66 228 42.63C228.05 42.6 228.07 42.56 228.07 42.49C228.07 42.41 228.04 42.33 227.97 42.27L225.46 38.27H221.7V42.19C221.7 42.34 221.74 42.46 221.8 42.55M226.15 36.89C226.98 36.89 227.57 36.73 227.91 36.42C228.25 36.11 228.42 35.68 228.42 35.13C228.42 34.86 228.39 34.63 228.32 34.44C228.25 34.25 228.13 34.09 227.95 33.96C227.77 33.83 227.53 33.73 227.23 33.67C226.92 33.61 226.53 33.58 226.06 33.58H221.69V36.89H226.16H226.15ZM206.94 32.57C206.87 32.48 206.74 32.44 206.55 32.44V32.19H215.1C215.45 32.19 215.68 32.16 215.77 32.1C215.87 32.04 215.91 31.93 215.91 31.78H216.16V34.11H215.91C215.91 33.93 215.86 33.79 215.75 33.69C215.64 33.59 215.43 33.54 215.12 33.54H208.75V36.77H212.89C213.13 36.77 213.34 36.73 213.49 36.65C213.65 36.57 213.72 36.42 213.72 36.2H213.97V38.67H213.72C213.72 38.47 213.66 38.32 213.54 38.24C213.42 38.16 213.21 38.12 212.93 38.12H208.74V41.59H215.56C215.85 41.59 216.06 41.54 216.19 41.44C216.32 41.34 216.39 41.16 216.39 40.9H216.64V43.33H216.39C216.39 43.07 216.15 42.94 215.68 42.94H206.53V42.69C206.72 42.69 206.85 42.65 206.92 42.56C206.99 42.47 207.02 42.35 207.02 42.2V32.93C207.02 32.78 206.99 32.66 206.92 32.57M210.62 28.68L212.89 31.5H211.85L209.05 28.68H210.62ZM195.06 42.55C195.13 42.64 195.26 42.68 195.45 42.68V42.93H192.76V42.68C192.95 42.68 193.08 42.64 193.15 42.55C193.22 42.46 193.25 42.34 193.25 42.19V32.92C193.25 32.77 193.21 32.65 193.15 32.56C193.08 32.47 192.95 32.43 192.76 32.43V32.18H199.6C200.95 32.18 201.91 32.44 202.5 32.95C203.08 33.46 203.38 34.2 203.38 35.16C203.38 36.02 203.16 36.7 202.71 37.2C202.26 37.7 201.52 38.02 200.5 38.16L203.07 42.14C203.22 42.36 203.34 42.5 203.43 42.57C203.52 42.64 203.67 42.67 203.87 42.67V42.92H200.93V42.67C201.11 42.67 201.22 42.66 201.27 42.63C201.32 42.6 201.34 42.56 201.34 42.49C201.34 42.41 201.31 42.33 201.24 42.27L198.73 38.27H194.97V42.19C194.97 42.34 195.01 42.46 195.07 42.55M199.43 36.89C200.26 36.89 200.85 36.73 201.19 36.42C201.53 36.11 201.7 35.68 201.7 35.13C201.7 34.86 201.67 34.63 201.6 34.44C201.53 34.25 201.41 34.09 201.23 33.96C201.05 33.83 200.81 33.73 200.51 33.67C200.2 33.61 199.81 33.58 199.34 33.58H194.97V36.89H199.44H199.43ZM188.24 38.6C188.24 38.39 188.19 38.26 188.08 38.19C187.93 38.08 187.72 38.03 187.45 38.03H183.1V42.19C183.1 42.34 183.13 42.46 183.2 42.55C183.27 42.64 183.4 42.68 183.59 42.68V42.93H180.9V42.68C181.09 42.68 181.22 42.64 181.29 42.55C181.36 42.46 181.39 42.34 181.39 42.19V32.92C181.39 32.77 181.35 32.65 181.29 32.56C181.22 32.47 181.09 32.43 180.9 32.43V32.18H189.68C190.03 32.18 190.26 32.15 190.35 32.09C190.45 32.03 190.49 31.92 190.49 31.77H190.73V34.1H190.49C190.49 33.92 190.44 33.78 190.33 33.68C190.22 33.58 190.01 33.53 189.7 33.53H183.11V36.67H187.44C187.79 36.67 188.02 36.64 188.11 36.58C188.21 36.52 188.25 36.41 188.25 36.26H188.5V38.59H188.25L188.24 38.6ZM165.03 42.55C165.09 42.61 165.25 42.66 165.51 42.68V42.93H161.3V42.68C161.56 42.65 161.72 42.61 161.78 42.55C161.84 42.49 161.87 42.41 161.87 42.32V32.81C161.87 32.72 161.84 32.64 161.78 32.58C161.72 32.52 161.56 32.47 161.3 32.45V32.2H168.77C170.28 32.2 171.38 32.48 172.06 33.03C172.74 33.58 173.08 34.44 173.08 35.59C173.08 36.53 172.8 37.26 172.25 37.79C171.7 38.32 171 38.7 170.16 38.93L172.57 42.32C172.73 42.57 172.93 42.69 173.16 42.69V42.94H168.91V42.69C169.21 42.68 169.36 42.55 169.36 42.32C169.36 42.29 169.31 42.2 169.2 42.03C169.09 41.86 168.95 41.67 168.79 41.44C168.63 41.21 168.45 40.96 168.25 40.7C168.05 40.43 167.86 40.18 167.68 39.93C167.5 39.68 167.34 39.47 167.2 39.28C167.06 39.09 166.98 38.96 166.93 38.89H164.93V42.32C164.93 42.42 164.96 42.49 165.02 42.55M168.36 36.73C168.96 36.73 169.37 36.62 169.6 36.39C169.83 36.16 169.94 35.9 169.94 35.6C169.94 35.3 169.83 35.04 169.6 34.81C169.38 34.59 168.96 34.47 168.36 34.47H164.93V36.72H168.36V36.73ZM156.55 39.01C156.52 38.87 156.47 38.76 156.38 38.67C156.29 38.58 156.15 38.54 155.94 38.54H152.14V40.44H158.69C158.8 40.44 158.88 40.4 158.93 40.33C158.98 40.26 159.03 40.09 159.05 39.83H159.3V43.32H159.05C159.02 43.14 158.98 43.03 158.93 42.99C158.88 42.95 158.79 42.93 158.69 42.93H148.5V42.68C148.76 42.65 148.92 42.61 148.98 42.55C149.04 42.49 149.07 42.41 149.07 42.32V32.81C149.07 32.72 149.04 32.64 148.98 32.58C148.92 32.52 148.76 32.47 148.5 32.45V32.2H158.69C158.8 32.2 158.88 32.16 158.93 32.09C158.98 32.01 159.03 31.86 159.05 31.63H159.3V35.18H159.05C159.02 34.95 158.98 34.8 158.93 34.72C158.88 34.64 158.79 34.61 158.69 34.61H152.14V36.3H155.94C156.14 36.3 156.29 36.26 156.38 36.17C156.47 36.08 156.53 35.97 156.55 35.83H156.8V39.01H156.55ZM136.6 38.79C136.57 38.87 136.56 39.01 136.56 39.22C136.56 39.36 136.68 39.51 136.94 39.68C137.19 39.85 137.52 40.01 137.92 40.16C138.32 40.31 138.78 40.43 139.3 40.54C139.82 40.64 140.34 40.69 140.87 40.69C141.89 40.69 142.64 40.57 143.12 40.33C143.6 40.09 143.83 39.75 143.83 39.3C143.83 39.05 143.62 38.88 143.21 38.78C142.79 38.68 142.27 38.6 141.65 38.54C141.03 38.48 140.35 38.41 139.63 38.34C138.91 38.26 138.23 38.13 137.61 37.93C136.99 37.73 136.46 37.45 136.05 37.07C135.64 36.7 135.43 36.18 135.43 35.53C135.43 35.01 135.55 34.54 135.79 34.12C136.03 33.7 136.36 33.34 136.79 33.04C137.22 32.74 137.74 32.51 138.35 32.34C138.96 32.17 139.64 32.09 140.39 32.09C141.08 32.09 141.73 32.13 142.33 32.22C142.93 32.31 143.46 32.41 143.92 32.52C144.38 32.63 144.77 32.73 145.08 32.82C145.39 32.91 145.62 32.95 145.75 32.95C145.88 32.95 145.99 32.92 146.08 32.86C146.16 32.8 146.24 32.73 146.3 32.65L146.52 32.73L145.11 35.57L144.86 35.45V35.23C144.86 35.11 144.73 34.98 144.46 34.85C144.2 34.72 143.86 34.61 143.45 34.5C143.04 34.4 142.59 34.31 142.08 34.25C141.58 34.18 141.09 34.15 140.61 34.15C139.73 34.15 139.11 34.25 138.75 34.46C138.4 34.66 138.22 34.88 138.22 35.11C138.22 35.34 138.34 35.51 138.59 35.63C138.84 35.75 139.15 35.83 139.55 35.88C139.95 35.93 140.39 35.98 140.9 36.01C141.4 36.04 141.92 36.09 142.45 36.16C142.98 36.23 143.5 36.32 144 36.45C144.5 36.57 144.95 36.75 145.35 36.99C145.74 37.23 146.07 37.54 146.31 37.93C146.55 38.32 146.68 38.8 146.68 39.39C146.68 39.84 146.59 40.28 146.4 40.72C146.22 41.16 145.9 41.55 145.46 41.89C145.02 42.24 144.43 42.51 143.69 42.72C142.95 42.92 142.03 43.03 140.92 43.03C140.06 43.03 139.32 42.99 138.71 42.91C138.09 42.83 137.56 42.73 137.13 42.61C136.69 42.49 136.35 42.39 136.1 42.29C135.85 42.2 135.66 42.15 135.54 42.15C135.46 42.15 135.39 42.18 135.33 42.23C135.27 42.28 135.2 42.35 135.14 42.41L134.89 42.35L136.4 38.72L136.6 38.82V38.79ZM129.19 42.69C129.45 42.66 129.61 42.62 129.67 42.56C129.73 42.5 129.76 42.42 129.76 42.33V34.82L129.72 34.78L126.09 42.7L122.5 34.7H122.46V42.33C122.46 42.43 122.49 42.5 122.55 42.56C122.61 42.62 122.77 42.67 123.03 42.69V42.94H119.44V42.69C119.7 42.66 119.86 42.62 119.92 42.56C119.98 42.5 120.01 42.42 120.01 42.33V32.82C120.01 32.73 119.98 32.65 119.92 32.59C119.86 32.53 119.7 32.48 119.44 32.46V32.21H124.77V32.46C124.44 32.47 124.28 32.6 124.28 32.83C124.28 32.84 124.32 32.95 124.4 33.16C124.48 33.36 124.59 33.62 124.72 33.91C124.85 34.21 124.99 34.53 125.15 34.88C125.31 35.23 125.45 35.56 125.6 35.88C125.74 36.2 125.87 36.48 125.98 36.73C126.09 36.98 126.16 37.14 126.2 37.22C126.43 36.7 126.67 36.2 126.91 35.71C127.15 35.22 127.38 34.77 127.57 34.36C127.77 33.95 127.93 33.61 128.05 33.34C128.17 33.07 128.23 32.9 128.23 32.83C128.23 32.6 128.07 32.48 127.74 32.46V32.21H133.27V32.46C133.01 32.49 132.85 32.53 132.79 32.59C132.73 32.65 132.7 32.73 132.7 32.82V42.33C132.7 42.43 132.73 42.5 132.79 42.56C132.85 42.62 133.01 42.67 133.27 42.69V42.94H129.19V42.69ZM109.32 42.55C109.38 42.61 109.54 42.66 109.8 42.68V42.93H105.59V42.68C105.85 42.65 106.01 42.61 106.07 42.55C106.13 42.49 106.16 42.41 106.16 42.32V32.81C106.16 32.72 106.13 32.64 106.07 32.58C106.01 32.52 105.85 32.47 105.59 32.45V32.2H113.06C114.57 32.2 115.67 32.48 116.35 33.03C117.03 33.58 117.37 34.44 117.37 35.59C117.37 36.53 117.09 37.26 116.54 37.79C115.99 38.32 115.29 38.7 114.45 38.93L116.86 42.32C117.02 42.57 117.22 42.69 117.45 42.69V42.94H113.2V42.69C113.5 42.68 113.65 42.55 113.65 42.32C113.65 42.29 113.59 42.2 113.49 42.03C113.38 41.87 113.24 41.67 113.08 41.44C112.92 41.21 112.74 40.96 112.54 40.7C112.34 40.43 112.15 40.18 111.97 39.93C111.79 39.68 111.63 39.47 111.49 39.28C111.35 39.09 111.27 38.96 111.23 38.89H109.23V42.32C109.23 42.42 109.26 42.49 109.32 42.55ZM112.66 36.73C113.26 36.73 113.67 36.62 113.9 36.39C114.12 36.17 114.24 35.9 114.24 35.6C114.24 35.3 114.13 35.04 113.9 34.81C113.67 34.59 113.26 34.47 112.66 34.47H109.23V36.72H112.66V36.73ZM96.1199 34.77C95.7199 34.91 95.3699 35.1 95.0599 35.35C94.7499 35.6 94.5099 35.92 94.3299 36.29C94.1499 36.66 94.0499 37.09 94.0499 37.57C94.0499 38.05 94.1399 38.47 94.3299 38.85C94.5099 39.23 94.7599 39.54 95.0599 39.79C95.3699 40.04 95.7199 40.24 96.1199 40.37C96.5199 40.51 96.9499 40.58 97.3999 40.58C97.8499 40.58 98.2699 40.51 98.6799 40.37C99.0799 40.23 99.4299 40.04 99.7399 39.79C100.05 39.54 100.29 39.22 100.47 38.85C100.65 38.48 100.74 38.05 100.74 37.57C100.74 37.09 100.65 36.66 100.47 36.29C100.29 35.91 100.04 35.6 99.7399 35.35C99.4299 35.1 99.0799 34.9 98.6799 34.77C98.2799 34.63 97.8499 34.56 97.3999 34.56C96.9499 34.56 96.5299 34.63 96.1199 34.77ZM99.8499 32.43C100.62 32.67 101.29 33.02 101.87 33.48C102.45 33.94 102.91 34.52 103.25 35.19C103.59 35.87 103.76 36.66 103.76 37.56C103.76 38.46 103.59 39.25 103.25 39.93C102.91 40.61 102.45 41.18 101.87 41.64C101.29 42.1 100.62 42.44 99.8499 42.66C99.0799 42.88 98.2599 42.99 97.3899 42.99C96.5199 42.99 95.6999 42.88 94.9299 42.66C94.1599 42.44 93.4899 42.1 92.9099 41.64C92.3299 41.18 91.8699 40.61 91.5299 39.93C91.1899 39.25 91.0199 38.46 91.0199 37.56C91.0199 36.66 91.1899 35.87 91.5299 35.19C91.8699 34.51 92.3299 33.94 92.9099 33.48C93.4899 33.02 94.1599 32.67 94.9299 32.43C95.6999 32.19 96.5199 32.07 97.3899 32.07C98.2599 32.07 99.0799 32.19 99.8499 32.43ZM75.1399 42.69C75.2499 42.66 75.3399 42.63 75.4299 42.6C75.5099 42.57 75.5499 42.48 75.5499 42.35C75.5499 42.32 75.5099 42.17 75.4199 41.9C75.3299 41.63 75.2099 41.27 75.0599 40.83C74.9099 40.39 74.7399 39.89 74.5599 39.32C74.3799 38.76 74.1899 38.18 73.9899 37.6C73.7899 37.02 73.5999 36.44 73.4099 35.86C73.2199 35.29 73.0499 34.78 72.8999 34.32C72.7499 33.86 72.6299 33.49 72.5299 33.19C72.4399 32.89 72.3799 32.72 72.3699 32.68C72.3299 32.53 72.2599 32.45 72.1699 32.45V32.2H75.8999V32.45C75.7799 32.48 75.6799 32.51 75.5899 32.54C75.5099 32.57 75.4699 32.65 75.4699 32.75C75.4699 32.79 75.5099 32.93 75.5799 33.18C75.6499 33.43 75.7499 33.74 75.8799 34.12C75.9999 34.5 76.1399 34.92 76.2899 35.37C76.4399 35.83 76.5899 36.28 76.7399 36.74C76.8899 37.2 77.0299 37.63 77.1599 38.04C77.2899 38.45 77.3899 38.79 77.4799 39.06H77.5199C77.5999 38.8 77.6999 38.47 77.8299 38.07C77.9499 37.67 78.0799 37.24 78.2299 36.78C78.3699 36.32 78.5199 35.86 78.6599 35.4C78.7999 34.94 78.9299 34.52 79.0499 34.13C79.1699 33.75 79.2599 33.43 79.3299 33.18C79.3999 32.93 79.4299 32.78 79.4299 32.74C79.4299 32.63 79.3799 32.56 79.2799 32.53C79.1799 32.5 79.0899 32.47 78.9999 32.44V32.19H83.8599V32.44C83.7599 32.47 83.6799 32.5 83.6099 32.53C83.5399 32.56 83.5099 32.64 83.5099 32.74C83.5099 32.75 83.5399 32.89 83.6099 33.15C83.6799 33.41 83.7699 33.74 83.8799 34.13C83.9899 34.52 84.1099 34.96 84.2499 35.45C84.3899 35.93 84.5199 36.4 84.6399 36.86C84.7599 37.32 84.8799 37.74 84.9899 38.14C85.0999 38.53 85.1799 38.84 85.2399 39.06H85.2799C85.3199 38.9 85.3999 38.64 85.5099 38.27C85.6199 37.91 85.7599 37.5 85.9099 37.06C86.0599 36.61 86.2099 36.14 86.3699 35.66C86.5299 35.18 86.6699 34.73 86.8099 34.32C86.9499 33.91 87.0599 33.57 87.1499 33.28C87.2399 32.99 87.2799 32.83 87.2799 32.79C87.2799 32.67 87.2399 32.59 87.1499 32.54C87.0599 32.5 86.9599 32.47 86.8499 32.44V32.19H90.2799V32.44C90.1699 32.45 90.0899 32.5 90.0399 32.56C89.9899 32.63 89.9599 32.72 89.9299 32.83C89.9199 32.87 89.8599 33.04 89.7699 33.33C89.6699 33.62 89.5499 33.99 89.3999 34.43C89.2499 34.87 89.0799 35.38 88.8899 35.94C88.6999 36.51 88.4999 37.08 88.2999 37.65C88.0999 38.23 87.8999 38.8 87.7199 39.36C87.5399 39.92 87.3699 40.42 87.2199 40.86C87.0699 41.3 86.9499 41.66 86.8599 41.94C86.7699 42.22 86.7299 42.37 86.7299 42.4C86.7299 42.52 86.7699 42.6 86.8599 42.63C86.9499 42.66 87.0399 42.68 87.1299 42.69V42.94H82.8799V42.69C83.1499 42.65 83.2899 42.55 83.2899 42.4C83.2899 42.24 83.2199 41.9 83.0899 41.39C82.9499 40.88 82.7899 40.28 82.5899 39.6C82.3899 38.92 82.1799 38.2 81.9599 37.43C81.7399 36.66 81.5299 35.94 81.3399 35.26H81.2999C81.1399 35.86 80.9299 36.55 80.6899 37.33C80.4399 38.11 80.2099 38.86 79.9799 39.58C79.7499 40.3 79.5499 40.93 79.3899 41.46C79.2299 41.99 79.1399 42.3 79.1399 42.4C79.1399 42.59 79.2899 42.69 79.5899 42.69V42.94H75.1799V42.69H75.1399Z" fill="white"/>
<path d="M136.59 18.37C136.55 18.31 136.46 18.28 136.33 18.28V18.12H142.03C142.27 18.12 142.41 18.1 142.48 18.06C142.54 18.02 142.58 17.95 142.58 17.85H142.74V19.4H142.58C142.58 19.28 142.54 19.19 142.47 19.12C142.4 19.05 142.26 19.02 142.05 19.02H137.8V21.17H140.56C140.72 21.17 140.86 21.14 140.96 21.09C141.06 21.03 141.12 20.94 141.12 20.79H141.28V22.44H141.12C141.12 22.3 141.08 22.21 141 22.15C140.92 22.1 140.78 22.07 140.59 22.07H137.8V24.38H142.35C142.54 24.38 142.68 24.35 142.77 24.28C142.86 24.21 142.91 24.09 142.91 23.92H143.07V25.54H142.91C142.91 25.37 142.75 25.28 142.43 25.28H136.33V25.12C136.46 25.12 136.54 25.09 136.59 25.03C136.63 24.97 136.66 24.89 136.66 24.79V18.61C136.66 18.51 136.64 18.43 136.59 18.37ZM123.72 18.37C123.68 18.31 123.59 18.28 123.46 18.28V18.12H125.25V18.28C125.12 18.28 125.04 18.31 124.99 18.37C124.95 18.43 124.92 18.51 124.92 18.61V22.97C124.92 23.49 125.11 23.85 125.5 24.06C125.89 24.27 126.46 24.38 127.22 24.38C127.98 24.38 128.56 24.27 128.94 24.06C129.32 23.85 129.52 23.48 129.52 22.97V18.61C129.52 18.51 129.5 18.43 129.45 18.37C129.41 18.31 129.32 18.28 129.19 18.28V18.12H130.99V18.28C130.86 18.28 130.78 18.31 130.73 18.37C130.69 18.43 130.66 18.51 130.66 18.61V22.67C130.66 23.21 130.58 23.66 130.42 24C130.26 24.34 130.03 24.62 129.74 24.82C129.45 25.02 129.08 25.15 128.66 25.22C128.23 25.29 127.75 25.32 127.22 25.32C126.69 25.32 126.2 25.29 125.78 25.22C125.35 25.15 124.99 25.02 124.7 24.82C124.41 24.62 124.18 24.35 124.02 24C123.86 23.65 123.78 23.21 123.78 22.67V18.61C123.78 18.51 123.76 18.43 123.71 18.37M116.74 26.35C116.74 26.35 116.81 26.26 116.82 26.23C116.82 26.19 116.82 26.16 116.82 26.13C116.82 26.09 116.77 25.98 116.66 25.82C116.55 25.66 116.34 25.44 116.02 25.15C115.57 25.26 115.08 25.31 114.55 25.31C113.96 25.31 113.42 25.24 112.92 25.09C112.42 24.94 111.99 24.71 111.62 24.4C111.25 24.09 110.97 23.71 110.76 23.26C110.55 22.81 110.45 22.29 110.45 21.69C110.45 21.09 110.55 20.58 110.76 20.13C110.96 19.68 111.25 19.29 111.62 18.98C111.99 18.67 112.42 18.43 112.92 18.27C113.42 18.11 113.96 18.03 114.55 18.03C115.14 18.03 115.68 18.11 116.18 18.27C116.68 18.43 117.11 18.66 117.48 18.98C117.85 19.29 118.13 19.68 118.34 20.13C118.54 20.58 118.65 21.11 118.65 21.69C118.65 22.4 118.5 23.01 118.21 23.52C117.92 24.03 117.51 24.44 116.99 24.74C117.2 24.96 117.36 25.12 117.47 25.23C117.58 25.34 117.69 25.39 117.8 25.39C117.85 25.39 117.89 25.37 117.92 25.34L118.03 25.45L116.82 26.44L116.74 26.35ZM115.5 23.34C115.77 23.52 116.04 23.74 116.29 24.01C116.67 23.78 116.96 23.48 117.15 23.09C117.35 22.7 117.44 22.24 117.44 21.69C117.44 20.84 117.19 20.17 116.68 19.68C116.18 19.2 115.46 18.95 114.54 18.95C113.62 18.95 112.9 19.19 112.4 19.68C111.9 20.16 111.65 20.83 111.65 21.68C111.65 22.53 111.9 23.2 112.4 23.68C112.9 24.16 113.62 24.41 114.54 24.41C114.67 24.41 114.79 24.41 114.91 24.39C115.03 24.38 115.15 24.36 115.26 24.34C115.07 24.17 114.92 24.03 114.8 23.92C114.69 23.81 114.59 23.73 114.5 23.67C114.41 23.61 114.33 23.56 114.25 23.54C114.17 23.51 114.06 23.5 113.94 23.5C113.9 23.5 113.86 23.5 113.83 23.51C113.8 23.51 113.78 23.52 113.75 23.52C113.67 23.52 113.63 23.49 113.63 23.42C113.63 23.32 113.7 23.23 113.85 23.16C113.99 23.09 114.2 23.05 114.46 23.05C114.88 23.05 115.22 23.14 115.5 23.32M104.05 23.48V18.61C104.05 18.51 104.03 18.43 103.98 18.37C103.94 18.31 103.85 18.28 103.72 18.28V18.12H105.35V18.28C105.22 18.28 105.14 18.31 105.09 18.37C105.05 18.43 105.02 18.51 105.02 18.61V24.79C105.02 24.89 105.04 24.97 105.09 25.03C105.13 25.09 105.22 25.12 105.35 25.12V25.28H103.61V25.12C103.79 25.12 103.88 25.08 103.88 25.01C103.88 24.95 103.86 24.89 103.83 24.85C103.79 24.81 103.77 24.78 103.75 24.75L98.9098 19.24V24.79C98.9098 24.89 98.9298 24.97 98.9798 25.03C99.0298 25.09 99.1098 25.12 99.2398 25.12V25.28H97.6098V25.12C97.7398 25.12 97.8198 25.09 97.8698 25.03C97.9198 24.97 97.9398 24.89 97.9398 24.79V18.61C97.9398 18.51 97.9198 18.43 97.8698 18.37C97.8198 18.31 97.7398 18.28 97.6098 18.28V18.12H99.9098V18.28C99.8098 18.28 99.7398 18.29 99.7098 18.31C99.6698 18.33 99.6498 18.37 99.6498 18.43C99.6498 18.46 99.6598 18.49 99.6798 18.52C99.6998 18.55 99.7298 18.58 99.7498 18.61L104.02 23.48H104.05ZM86.7598 23.37H90.6098L91.1298 24.46C91.1998 24.62 91.2498 24.73 91.2698 24.78C91.2898 24.83 91.2998 24.88 91.2998 24.92C91.2998 24.98 91.2798 25.03 91.2398 25.06C91.1998 25.09 91.1298 25.11 91.0198 25.11V25.27H92.9098V25.11C92.8298 25.11 92.7698 25.11 92.7198 25.1C92.6698 25.1 92.6298 25.06 92.5898 25.02C92.5498 24.97 92.5098 24.91 92.4598 24.81C92.4098 24.72 92.3498 24.59 92.2698 24.43L89.6598 19.01C89.5898 18.86 89.5298 18.74 89.4798 18.65C89.4298 18.56 89.4098 18.49 89.4098 18.44C89.4098 18.33 89.4798 18.28 89.6298 18.28V18.12H87.6398V18.28C87.7998 18.28 87.8798 18.33 87.8798 18.44C87.8798 18.49 87.8598 18.55 87.8298 18.62C87.7898 18.7 87.7398 18.81 87.6698 18.97L85.2098 24.47C85.1398 24.62 85.0798 24.73 85.0298 24.82C84.9898 24.91 84.9398 24.97 84.9098 25.02C84.8698 25.06 84.8398 25.09 84.7898 25.1C84.7398 25.11 84.6998 25.11 84.6498 25.11V25.27H86.3198V25.11C86.1698 25.11 86.0898 25.06 86.0898 24.96C86.0898 24.91 86.1098 24.83 86.1598 24.73C86.2098 24.63 86.2498 24.54 86.2798 24.46L86.7398 23.37H86.7598ZM87.1898 22.47L88.5998 19.26L90.1398 22.47H87.1898ZM77.7398 24.29C78.1698 24.29 78.4998 24.19 78.7298 23.99C78.9498 23.79 79.0598 23.5 79.0598 23.12C79.0598 22.74 78.9498 22.45 78.7298 22.25C78.5098 22.05 78.1798 21.95 77.7398 21.95H74.3198V24.29H77.7398ZM77.4398 20.97C77.9598 20.97 78.3198 20.89 78.5198 20.74C78.7198 20.58 78.8198 20.35 78.8198 20.03C78.8198 19.71 78.7198 19.48 78.5198 19.32C78.3198 19.17 77.9598 19.09 77.4398 19.09H74.3198V20.97H77.4398ZM73.1098 18.37C73.0598 18.31 72.9798 18.28 72.8498 18.28V18.12H77.5298C77.9598 18.12 78.3298 18.17 78.6398 18.26C78.9398 18.35 79.1898 18.49 79.3798 18.66C79.5698 18.83 79.7098 19.02 79.7898 19.24C79.8798 19.46 79.9198 19.7 79.9198 19.97C79.9198 20.32 79.8498 20.63 79.6998 20.89C79.5498 21.15 79.2798 21.33 78.8998 21.43V21.46C79.2898 21.55 79.5898 21.75 79.7998 22.07C80.0098 22.38 80.1098 22.76 80.1098 23.21C80.1098 23.87 79.8998 24.39 79.4798 24.75C79.0598 25.11 78.3798 25.29 77.4198 25.29H72.8298V25.13C72.9598 25.13 73.0398 25.1 73.0898 25.04C73.1298 24.98 73.1598 24.9 73.1598 24.8V18.62C73.1598 18.52 73.1398 18.44 73.0898 18.38" fill="white"/>
<path d="M0 0V60.17H60.17V0H0ZM31.63 43.15H26.9V42.56C27.45 42.4 27.73 42.07 27.73 41.55C27.73 41.39 27.63 40.98 27.44 40.31L22.26 21.92L17.24 40.16C17.05 40.88 16.95 41.38 16.95 41.66C16.95 42.06 17.23 42.36 17.78 42.56V43.15H12.97V42.56C13.52 42.43 13.8 42.13 13.8 41.66C13.8 41.4 13.69 40.9 13.48 40.16L8.18 21.79C7.81 20.54 7.53 19.75 7.33 19.42C7.13 19.1 6.8 18.88 6.34 18.77V18.18H10.99V18.77C10.41 18.85 10.12 19.17 10.12 19.7C10.12 19.9 10.25 20.46 10.51 21.4L15.44 39.03L20.33 21.4C20.61 20.36 20.75 19.77 20.75 19.61C20.75 19.17 20.47 18.89 19.92 18.77V18.18H24.98V18.77C24.43 18.94 24.15 19.25 24.15 19.7C24.15 19.88 24.28 20.45 24.54 21.4L29.34 39.03L34.09 21.4C34.32 20.52 34.44 19.94 34.44 19.66C34.44 19.2 34.17 18.9 33.62 18.76V18.17H38.14L38.01 18.76C37.53 18.88 37.19 19.12 36.97 19.46C36.75 19.81 36.48 20.58 36.16 21.77L31.09 40.14C30.9 40.85 30.8 41.32 30.8 41.55C30.8 42.04 31.08 42.37 31.63 42.54V43.13V43.15ZM53.86 21.74H53.4C53.31 21.27 53.18 20.96 53.01 20.8C52.84 20.64 52.55 20.57 52.15 20.57H39.25V29.09H47.84C48.25 29.09 48.53 29.01 48.7 28.85C48.87 28.69 49 28.38 49.08 27.92H49.54V32.64H49.08C48.99 32.18 48.87 31.87 48.7 31.71C48.53 31.55 48.24 31.47 47.84 31.47H39.25V40.99C39.25 41.5 39.31 41.86 39.43 42.07C39.55 42.28 39.8 42.44 40.18 42.56V43.15H36.05V42.56C36.42 42.44 36.66 42.27 36.79 42.07C36.91 41.86 36.98 41.5 36.98 40.99V28.24L39.73 18.19H52.16C52.57 18.19 52.85 18.11 53.02 17.96C53.19 17.8 53.32 17.49 53.41 17.02H53.87V21.74H53.86Z" fill="white"/>
</g>
<defs>
<clipPath id="clip0_1_312">
<rect width="256.26" height="60.17" fill="white"/>
</clipPath>
</defs>
</svg>
